<?xml version="1.0" standalone="no"?><!DOCTYPE svg PUBLIC "-//W3C//DTD SVG 1.1//EN" "http://www.w3.org/Graphics/SVG/1.1/DTD/svg11.dtd"><svg t="1503366278906" class="icon" style="" viewBox="0 0 1024 1024" version="1.1" xmlns="http://www.w3.org/2000/svg" p-id="5730" xmlns:xlink="http://www.w3.org/1999/xlink" width="200" height="200"><defs><style type="text/css"></style></defs><path d="M475.428963 475.428963H36.46242A36.351974 36.351974 0 0 0 0.000731 512.000366c0 20.3337 16.310845 36.571402 36.461689 36.571402H475.428963v438.966544c0 20.370271 16.383988 36.461688 36.571403 36.461688 20.3337 0 36.571402-16.310845 36.571402-36.461688V548.571768h438.966544A36.351974 36.351974 0 0 0 1024 512.000366c0-20.3337-16.310845-36.571402-36.461688-36.571403H548.571768V36.46242A36.351974 36.351974 0 0 0 512.000366 0.000731c-20.3337 0-36.571402 16.310845-36.571403 36.461689V475.428963z" fill="#D8D8D8" p-id="5731"></path></svg>