<?xml version="1.0" encoding="UTF-8" standalone="no"?>
<svg
   xmlns:dc="http://purl.org/dc/elements/1.1/"
   xmlns:cc="http://creativecommons.org/ns#"
   xmlns:rdf="http://www.w3.org/1999/02/22-rdf-syntax-ns#"
   xmlns:svg="http://www.w3.org/2000/svg"
   xmlns="http://www.w3.org/2000/svg"
   xmlns:sodipodi="http://sodipodi.sourceforge.net/DTD/sodipodi-0.dtd"
   xmlns:inkscape="http://www.inkscape.org/namespaces/inkscape"
   height="200"
   width="200"
   fill="#000000"
   version="1.1"
   x="0px"
   y="0px"
   viewBox="0 0 100 100"
   enable-background="new 0 0 100 100"
   xml:space="preserve"
   id="svg136"
   sodipodi:docname="notation.svg"
   inkscape:version="0.92.2 (5c3e80d, 2017-08-06)"><metadata
     id="metadata142"><rdf:RDF><cc:Work
         rdf:about=""><dc:format>image/svg+xml</dc:format><dc:type
           rdf:resource="http://purl.org/dc/dcmitype/StillImage" /></cc:Work></rdf:RDF></metadata><defs
     id="defs140" /><sodipodi:namedview
     pagecolor="#ffffff"
     bordercolor="#666666"
     borderopacity="1"
     objecttolerance="10"
     gridtolerance="10"
     guidetolerance="10"
     inkscape:pageopacity="0"
     inkscape:pageshadow="2"
     inkscape:window-width="1920"
     inkscape:window-height="1147"
     id="namedview138"
     showgrid="false"
     inkscape:zoom="3.337544"
     inkscape:cx="47.18423"
     inkscape:cy="67.717665"
     inkscape:window-x="-8"
     inkscape:window-y="-8"
     inkscape:window-maximized="1"
     inkscape:current-layer="svg136" /><g
     id="g134"
     style="fill:#000000"><path
       d="M88.971,32.119c0-0.597-0.318-1.147-0.834-1.445s-1.15-0.296-1.666,0.002L54.269,49.268   c-1.713,0.989-2.769,2.816-2.769,4.795v37.185c0,0.595,0.317,1.145,0.833,1.442c0.515,0.298,1.15,0.299,1.667,0.001L84.971,74.81   c2.476-1.43,4-4.07,4-6.929V32.119z"
       id="path128"
       style="fill:#000000" /><path
       d="M13.529,30.675c-0.516-0.297-1.15-0.298-1.666,0s-0.834,0.847-0.834,1.442c0,0,0,0.001,0,0.002v35.762   c0,2.858,1.525,5.499,4,6.929L46,92.69c0,0,0.001,0.001,0.002,0.001c0.516,0.298,1.151,0.297,1.667-0.001   c0.515-0.298,0.831-0.849,0.831-1.443V54.062c0-1.979-1.055-3.806-2.769-4.795L13.529,30.675z"
       id="path130"
       style="fill:#000000" /><path
       d="M84.971,28.078c0.516-0.297,0.833-0.847,0.834-1.442c0-0.595-0.316-1.146-0.832-1.443c0,0-0.001-0.001-0.002-0.001L54,7.31   c-2.476-1.429-5.525-1.429-8,0L15.029,25.19c-0.001,0-0.002,0.001-0.002,0.001c-0.516,0.298-0.833,0.849-0.833,1.444   c0.001,0.596,0.319,1.144,0.835,1.442L47.231,46.67c1.713,0.989,3.824,0.989,5.537,0L84.971,28.078z"
       id="path132"
       style="fill:#000000" /></g><path
     style="fill:#008000;stroke-width:0.84745765"
     d="M 93.220339,92.025092 C 78.302958,84.121071 29.22299,54.966108 29.037045,53.898305 c -0.121749,-0.699152 0.06418,-1.681028 0.413169,-2.181946 0.348993,-0.500917 15.310646,-9.367443 33.248118,-19.70339 31.806278,-18.327442 32.730212,-18.79263 37.324988,-18.79263 4.59558,0 5.51253,0.462008 37.30166,18.79443 17.92466,10.336937 32.87582,19.203462 33.22481,19.70339 0.34899,0.499928 0.53505,1.480994 0.41347,2.180146 -0.19351,1.112798 -51.33019,31.438014 -64.3713,38.173642 -5.96381,3.080264 -7.479788,3.074951 -13.371621,-0.04685 z"
     id="path144"
     inkscape:connector-curvature="0"
     transform="scale(0.5)" /><path
     style="fill:#ffff00;stroke-width:0.29962152"
     d="M 98.046004,94.041215 C 96.26394,93.625604 91.278717,90.994415 79.713012,84.3651 52.507315,68.771139 29.038708,54.47987 29.038708,53.506849 c 0,-1.470638 0.643569,-1.979332 8.298911,-6.559668 13.458985,-8.052767 43.440841,-25.331826 51.297672,-29.563732 9.904771,-5.334983 12.032809,-5.412846 21.149539,-0.773847 9.27111,4.717553 58.93244,33.51974 60.5024,35.089703 0.63319,0.633187 0.60318,2.208285 -0.0519,2.723628 -2.92179,2.29858 -35.52828,21.790559 -53.40754,31.926722 -13.29023,7.534541 -15.52715,8.450606 -18.781806,7.69156 z"
     id="path146"
     inkscape:connector-curvature="0"
     transform="scale(0.5)" /><path
     style="fill:#008000;stroke-width:0.29962152"
     d="M 61.09821,167.40926 C 31.031538,150.08159 29.062527,148.89634 27.007139,146.88817 c -2.499333,-2.44191 -3.997709,-5.23422 -4.551058,-8.48114 -0.230872,-1.35471 -0.304096,-12.96658 -0.24428,-38.737772 l 0.08542,-36.803153 0.978497,-0.874252 c 0.688439,-0.615096 1.2912,-0.874252 2.033386,-0.874252 0.849589,0 7.444762,3.688225 33.887727,18.951061 18.058057,10.423084 33.399835,19.447109 34.092839,20.053388 0.693003,0.60628 1.722083,1.95458 2.286846,2.99622 l 1.026842,1.89388 0.07925,39.31574 0.07925,39.31573 -0.828307,0.91886 c -0.516829,0.57333 -1.222648,0.9786 -1.876979,1.07773 -0.957956,0.14512 -3.809094,-1.43199 -32.958367,-18.23095 z"
     id="path148"
     inkscape:connector-curvature="0"
     transform="scale(0.5)" /><path
     style="fill:#ff6600;stroke-width:0.29962152"
     d="m 104.96908,185.34668 c -0.53827,-0.2412 -1.13339,-0.85771 -1.42873,-1.4801 -0.46833,-0.98693 -0.50018,-3.94228 -0.42575,-39.51114 l 0.0804,-38.44442 0.71584,-1.77671 c 1.50413,-3.73326 0.72626,-3.22564 36.91116,-24.087398 35.89971,-20.697339 34.17645,-19.830173 35.92747,-18.079157 0.56505,0.565054 0.9147,1.293521 1.04264,2.172256 0.10587,0.727156 0.14523,17.703909 0.0875,37.726119 -0.11504,39.88079 0.007,37.24955 -1.90503,41.19796 -0.53208,1.09897 -1.62986,2.55472 -2.8243,3.74527 -1.79668,1.79082 -4.51457,3.42474 -33.77713,20.30581 -17.50278,10.09704 -32.19635,18.42276 -32.65239,18.50158 -0.45603,0.0788 -1.24429,-0.0427 -1.75169,-0.27007 z"
     id="path150"
     inkscape:connector-curvature="0"
     transform="scale(0.5)" /><path
     style="fill:#000000;stroke-width:0.29962152"
     d="m 38.626596,60.939221 c -4.696567,-2.72409 -8.835586,-5.230999 -9.197819,-5.570909 -0.895278,-0.840102 -1.113018,-2.063669 -0.589999,-3.315429 0.35713,-0.854733 1.047007,-1.393394 3.924769,-3.06449 1.920313,-1.115112 3.555173,-1.963781 3.633022,-1.885932 0.07785,0.07785 -1.282083,1.0002 -3.022071,2.049668 -3.951683,2.383443 -4.33579,2.738367 -4.33579,4.006367 0,0.942456 0.1819,1.124033 2.871457,2.86634 1.579301,1.023079 5.714383,3.599011 9.189071,5.724294 3.474687,2.125282 6.384723,3.931259 6.466746,4.013282 0.648805,0.648805 -1.558111,-0.541923 -8.939386,-4.823191 z"
     id="path152"
     inkscape:connector-curvature="0"
     transform="scale(0.5)" /><text
     xml:space="preserve"
     style="font-style:normal;font-variant:normal;font-weight:bold;font-stretch:normal;font-size:32px;line-height:1.25;font-family:Arial;-inkscape-font-specification:'Arial Bold';letter-spacing:0px;word-spacing:0px;fill:#000000;fill-opacity:1;stroke:none;stroke-width:0.5"
     x="17.67767"
     y="72.434822"
     id="text160"><tspan
       sodipodi:role="line"
       id="tspan158"
       x="17.67767"
       y="72.434822"
       style="font-style:normal;font-variant:normal;font-weight:bold;font-stretch:normal;font-size:32px;font-family:Arial;-inkscape-font-specification:'Arial Bold';stroke-width:0.5">F</tspan></text>
<text
     xml:space="preserve"
     style="font-style:normal;font-variant:normal;font-weight:bold;font-stretch:normal;font-size:32px;line-height:1.25;font-family:Arial;-inkscape-font-specification:'Arial Bold';letter-spacing:0px;word-spacing:0px;fill:#000000;fill-opacity:1;stroke:none;stroke-width:0.5"
     x="38.351555"
     y="38.802303"
     id="text164"><tspan
       sodipodi:role="line"
       id="tspan162"
       x="38.351555"
       y="38.802303"
       style="font-style:normal;font-variant:normal;font-weight:bold;font-stretch:normal;font-family:Arial;-inkscape-font-specification:'Arial Bold';stroke-width:0.5">U</tspan></text>
<text
     xml:space="preserve"
     style="font-style:normal;font-variant:normal;font-weight:bold;font-stretch:normal;font-size:32px;line-height:1.25;font-family:Arial;-inkscape-font-specification:'Arial Bold';letter-spacing:0px;word-spacing:0px;fill:#000000;fill-opacity:1;stroke:none;stroke-width:0.5"
     x="59.624683"
     y="71.236336"
     id="text168"><tspan
       sodipodi:role="line"
       id="tspan166"
       x="59.624683"
       y="71.236336"
       style="font-style:normal;font-variant:normal;font-weight:bold;font-stretch:normal;font-family:Arial;-inkscape-font-specification:'Arial Bold';stroke-width:0.5">R</tspan></text>
</svg>