<?xml version="1.0" encoding="UTF-8" standalone="no"?>
<svg
   xmlns:dc="http://purl.org/dc/elements/1.1/"
   xmlns:cc="http://creativecommons.org/ns#"
   xmlns:rdf="http://www.w3.org/1999/02/22-rdf-syntax-ns#"
   xmlns:svg="http://www.w3.org/2000/svg"
   xmlns="http://www.w3.org/2000/svg"
   xmlns:sodipodi="http://sodipodi.sourceforge.net/DTD/sodipodi-0.dtd"
   xmlns:inkscape="http://www.inkscape.org/namespaces/inkscape"
   version="1.1"
   width="150"
   height="150"
   viewBox="-0.9 -0.9 1.8 1.8"
   id="svg383"
   sodipodi:docname="strategy2.svg"
   inkscape:version="0.92.2 (5c3e80d, 2017-08-06)">
  <metadata
     id="metadata389">
    <rdf:RDF>
      <cc:Work
         rdf:about="">
        <dc:format>image/svg+xml</dc:format>
        <dc:type
           rdf:resource="http://purl.org/dc/dcmitype/StillImage" />
      </cc:Work>
    </rdf:RDF>
  </metadata>
  <defs
     id="defs387" />
  <sodipodi:namedview
     pagecolor="#ffffff"
     bordercolor="#666666"
     borderopacity="1"
     objecttolerance="10"
     gridtolerance="10"
     guidetolerance="10"
     inkscape:pageopacity="0"
     inkscape:pageshadow="2"
     inkscape:window-width="1920"
     inkscape:window-height="1147"
     id="namedview385"
     showgrid="false"
     inkscape:zoom="2.2250293"
     inkscape:cx="49.68592"
     inkscape:cy="109.18696"
     inkscape:window-x="-8"
     inkscape:window-y="-8"
     inkscape:window-maximized="1"
     inkscape:current-layer="svg383" />
  <g
     transform="matrix(0.01579026,0,0,0.01442397,-4.089825,-4.0063754)"
     id="g113">
    <path
       inkscape:connector-curvature="0"
       style="fill:#cc584c"
       d="m 232,244 c -1.024,0 -2.048,-0.392 -2.828,-1.172 -1.564,-1.564 -1.564,-4.092 0,-5.656 l 20,-20 c 1.564,-1.564 4.092,-1.564 5.656,0 1.564,1.564 1.564,4.092 0,5.656 l -20,20 C 234.048,243.608 233.024,244 232,244 Z"
       id="path101" />
    <path
       inkscape:connector-curvature="0"
       style="fill:#cc584c"
       d="m 252,244 c -1.024,0 -2.048,-0.392 -2.828,-1.172 l -20,-20 c -1.564,-1.564 -1.564,-4.092 0,-5.656 1.564,-1.564 4.092,-1.564 5.656,0 l 20,20 c 1.564,1.564 1.564,4.092 0,5.656 -0.78,0.78 -1.804,1.172 -2.828,1.172 z"
       id="path103" />
    <path
       inkscape:connector-curvature="0"
       style="fill:#cc584c"
       d="m 252,340 c -1.024,0 -2.048,-0.392 -2.828,-1.172 -1.564,-1.564 -1.564,-4.092 0,-5.656 l 20,-20 c 1.564,-1.564 4.092,-1.564 5.656,0 1.564,1.564 1.564,4.092 0,5.656 l -20,20 C 254.048,339.608 253.024,340 252,340 Z"
       id="path105" />
    <path
       inkscape:connector-curvature="0"
       style="fill:#cc584c"
       d="m 272,340 c -1.024,0 -2.048,-0.392 -2.828,-1.172 l -20,-20 c -1.564,-1.564 -1.564,-4.092 0,-5.656 1.564,-1.564 4.092,-1.564 5.656,0 l 20,20 c 1.564,1.564 1.564,4.092 0,5.656 -0.78,0.78 -1.804,1.172 -2.828,1.172 z"
       id="path107" />
    <path
       inkscape:connector-curvature="0"
       style="fill:#cc584c"
       d="m 284,296 c -1.024,0 -2.048,-0.392 -2.828,-1.172 -1.564,-1.564 -1.564,-4.092 0,-5.656 l 20,-20 c 1.564,-1.564 4.092,-1.564 5.656,0 1.564,1.564 1.564,4.092 0,5.656 l -20,20 C 286.048,295.608 285.024,296 284,296 Z"
       id="path109" />
    <path
       inkscape:connector-curvature="0"
       style="fill:#cc584c"
       d="m 304,296 c -1.024,0 -2.048,-0.392 -2.828,-1.172 l -20,-20 c -1.564,-1.564 -1.564,-4.092 0,-5.656 1.564,-1.564 4.092,-1.564 5.656,0 l 20,20 c 1.564,1.564 1.564,4.092 0,5.656 -0.78,0.78 -1.804,1.172 -2.828,1.172 z"
       id="path111" />
  </g>
  <g
     transform="matrix(0.01139641,0,0,0.00947523,-3.0314545,-2.6179177)"
     id="g123">
    <path
       inkscape:connector-curvature="0"
       style="fill:#406a80"
       d="m 300,216 c -8.824,0 -16,-7.176 -16,-16 0,-8.824 7.176,-16 16,-16 8.824,0 16,7.176 16,16 0,8.824 -7.176,16 -16,16 z m 0,-24 c -4.412,0 -8,3.588 -8,8 0,4.412 3.588,8 8,8 4.412,0 8,-3.588 8,-8 0,-4.412 -3.588,-8 -8,-8 z"
       id="path115" />
    <path
       inkscape:connector-curvature="0"
       style="fill:#406a80"
       d="m 216,332 c -8.824,0 -16,-7.176 -16,-16 0,-8.824 7.176,-16 16,-16 8.824,0 16,7.176 16,16 0,8.824 -7.176,16 -16,16 z m 0,-24 c -4.412,0 -8,3.584 -8,8 0,4.416 3.588,8 8,8 4.412,0 8,-3.584 8,-8 0,-4.416 -3.588,-8 -8,-8 z"
       id="path117" />
    <path
       inkscape:connector-curvature="0"
       style="fill:#406a80"
       d="m 216,292 c -2.212,0 -4,-1.792 -4,-4 0,-22.444 26.144,-27.352 49.212,-31.676 C 279.1,252.972 296,249.804 296,240 v -8 c 0,-2.208 1.788,-4 4,-4 2.212,0 4,1.792 4,4 v 8 c 0,16.44 -21.004,20.38 -41.316,24.188 C 237.692,268.872 220,273.324 220,288 c 0,2.208 -1.788,4 -4,4 z"
       id="path119" />
    <path
       inkscape:connector-curvature="0"
       style="fill:#406a80"
       d="m 312,240 c -1.024,0 -2.048,-0.392 -2.828,-1.172 l -9.172,-9.172 -9.172,9.172 c -1.564,1.564 -4.092,1.564 -5.656,0 -1.564,-1.564 -1.564,-4.092 0,-5.656 l 12,-12 c 1.564,-1.564 4.092,-1.564 5.656,0 l 12,12 c 1.564,1.564 1.564,4.092 0,5.656 -0.78,0.78 -1.804,1.172 -2.828,1.172 z"
       id="path121" />
  </g>
</svg>
